<?xml version="1.0" standalone="no"?>
<!DOCTYPE svg PUBLIC "-//W3C//DTD SVG 20010904//EN"
 "http://www.w3.org/TR/2001/REC-SVG-20010904/DTD/svg10.dtd">
<svg version="1.0" xmlns="http://www.w3.org/2000/svg"
 width="840.000000pt" height="850.000000pt" viewBox="0 0 840.000000 850.000000"
 preserveAspectRatio="xMidYMid meet">

<g transform="translate(0.000000,850.000000) scale(0.100000,-0.100000)"
fill="#000000" stroke="none">
<path d="M3880 8419 c-1292 -101 -2448 -777 -3165 -1849 -764 -1143 -916
-2575 -409 -3861 419 -1065 1278 -1924 2343 -2343 1000 -394 2082 -394 3082 0
785 309 1459 854 1934 1564 871 1303 939 2985 176 4355 -740 1328 -2158 2155
-3675 2144 -100 -1 -228 -5 -286 -10z m2009 -2074 c141 -14 300 -87 369 -171
56 -67 81 -186 82 -381 l0 -103 -250 0 -250 0 0 119 c0 169 -15 199 -95 189
-47 -5 -69 -48 -73 -137 -7 -149 26 -201 194 -301 159 -95 277 -182 360 -264
65 -65 85 -93 103 -141 38 -100 51 -196 51 -363 0 -176 -16 -271 -54 -336 -54
-93 -169 -169 -315 -208 -102 -28 -323 -30 -426 -4 -154 37 -294 135 -343 237
-35 73 -52 171 -59 352 l-6 167 250 0 251 0 4 -183 c2 -152 6 -187 20 -209 34
-52 112 -45 148 14 16 27 20 51 20 134 0 136 -17 191 -76 243 -25 22 -123 93
-217 157 -270 183 -316 226 -363 343 -35 86 -44 147 -44 290 0 150 13 238 44
306 64 142 219 234 426 254 83 9 121 8 249 -4z m-3019 -43 c0 -5 68 -462 150
-1017 83 -554 150 -1010 150 -1012 0 -1 -123 -3 -274 -3 l-273 0 -6 78 c-4 42
-10 123 -13 180 l-7 102 -93 0 -92 0 -6 -47 c-3 -27 -11 -106 -17 -178 -6 -71
-12 -131 -14 -133 -1 -1 -125 -1 -276 0 l-274 3 134 1018 135 1017 388 0 c213
0 388 -4 388 -8z m703 -14 c3 -13 27 -305 53 -650 27 -344 52 -624 56 -622 5
3 8 27 8 53 0 94 55 622 107 1029 l27 212 277 0 278 0 5 -32 c8 -45 39 -429
76 -918 30 -398 37 -467 39 -403 8 215 104 1136 137 1321 l6 32 259 0 c179 0
259 -3 259 -11 0 -6 -52 -457 -115 -1003 -63 -546 -115 -1001 -115 -1010 0
-15 -29 -16 -337 -14 l-338 3 -22 123 c-34 185 -79 486 -104 687 -12 99 -26
184 -31 190 -5 5 -8 1 -8 -10 0 -11 -30 -239 -67 -507 l-67 -488 -333 0 -332
0 -5 33 c-3 17 -55 462 -116 987 -60 525 -112 970 -115 988 l-6 32 259 0 260
0 5 -22z m-691 -2525 l3 -388 115 385 115 385 254 3 c211 2 252 0 248 -11 -23
-60 -297 -907 -297 -918 0 -8 68 -242 150 -519 83 -278 157 -526 165 -552 l14
-48 -278 0 -277 0 -105 423 -104 422 -3 -422 -2 -423 -265 0 -265 0 0 1025 0
1025 265 0 265 0 2 -387z m1330 -456 c3 -787 4 -845 21 -870 25 -38 79 -38
104 0 17 25 18 83 21 870 l3 843 264 0 265 0 0 -818 c0 -550 -4 -838 -11 -878
-15 -84 -55 -159 -121 -230 -108 -115 -244 -164 -455 -164 -151 0 -239 18
-350 71 -147 70 -239 190 -263 339 -6 40 -10 373 -10 873 l0 807 265 0 264 0
3 -843z m1453 833 c225 -10 289 -21 358 -58 105 -56 172 -161 198 -307 14 -79
7 -382 -10 -436 -27 -86 -77 -130 -184 -159 l-60 -16 64 -23 c48 -18 77 -37
116 -76 82 -85 83 -89 83 -562 l0 -403 -244 0 -244 0 -4 413 c-4 470 -5 477
-75 496 -21 6 -48 11 -60 11 l-23 0 0 -460 0 -460 -270 0 -270 0 0 1018 c0
560 3 1022 7 1025 9 10 385 8 618 -3z"/>
<path d="M2497 5780 c-6 -16 -58 -427 -77 -610 -6 -58 -12 -120 -15 -137 l-4
-33 91 0 91 0 -6 38 c-8 47 -44 409 -61 607 -7 83 -15 143 -19 135z"/>
<path d="M5580 3565 l0 -227 48 7 c61 9 81 20 93 53 17 44 23 230 10 295 -14
67 -37 87 -106 95 l-45 5 0 -228z"/>
</g>
</svg>
