<?xml version="1.0" standalone="no"?>
<!DOCTYPE svg PUBLIC "-//W3C//DTD SVG 20010904//EN"
 "http://www.w3.org/TR/2001/REC-SVG-20010904/DTD/svg10.dtd">
<svg version="1.0" xmlns="http://www.w3.org/2000/svg"
 width="173.000000pt" height="151.000000pt" viewBox="0 0 173.000000 151.000000"
 preserveAspectRatio="xMidYMid meet">

<g transform="translate(0.000000,151.000000) scale(0.100000,-0.100000)"
fill="#000000" stroke="none">
<path d="M793 1023 c-13 -2 -32 -16 -43 -30 l-20 -26 0 27 c0 24 -4 26 -39 26
-46 0 -47 -2 -57 -111 l-8 -84 -7 50 c-4 28 -8 72 -8 98 l-1 48 -47 -3 -48 -3
-10 -90 -11 -90 -7 55 c-4 30 -7 72 -7 93 l0 37 -45 0 c-25 0 -45 -3 -45 -7 0
-11 30 -254 36 -290 5 -33 6 -33 59 -33 l54 0 7 60 c4 33 10 60 14 60 5 0 11
-27 15 -60 l7 -60 58 0 57 0 13 128 c12 112 15 123 23 89 7 -28 20 -45 53 -67
49 -35 63 -55 57 -81 -9 -32 -23 -21 -23 16 0 34 -1 35 -40 35 -34 0 -40 -3
-41 -22 -3 -47 3 -64 28 -87 23 -20 34 -22 77 -18 63 6 86 31 86 94 0 39 -5
50 -38 82 -20 20 -45 41 -54 46 -21 12 -28 46 -10 52 7 3 12 -4 12 -19 0 -20
5 -23 40 -23 40 0 40 0 40 37 0 28 -6 41 -22 52 -26 17 -72 25 -105 19z"/>
<path d="M236 1008 c-2 -7 -12 -74 -21 -148 -9 -74 -19 -143 -22 -153 -4 -16
1 -18 44 -15 41 3 48 6 51 26 5 31 32 29 32 -3 0 -23 4 -25 45 -25 25 0 45 4
45 10 0 12 -39 267 -46 298 -4 20 -10 22 -65 22 -39 0 -61 -4 -63 -12z m70
-196 c-14 -13 -18 11 -10 55 l9 48 3 -49 c2 -26 1 -51 -2 -54z"/>
<path d="M948 1013 c-2 -5 -4 -78 -4 -163 l1 -155 48 -3 c26 -2 47 1 46 5 -1
4 0 24 1 43 l2 35 11 -42 10 -43 47 0 48 0 -24 78 c-29 94 -29 103 -4 177 11
32 20 62 20 67 0 4 -18 8 -39 8 -37 0 -40 -3 -51 -37 -17 -52 -27 -61 -25 -21
1 18 0 39 -2 46 -5 13 -79 17 -85 5z"/>
<path d="M1160 881 c0 -77 3 -147 6 -156 15 -38 97 -57 147 -34 39 18 47 50
47 194 l0 135 -45 0 -45 0 0 -140 c0 -87 -4 -140 -10 -140 -6 0 -10 53 -10
140 l0 140 -45 0 -45 0 0 -139z"/>
<path d="M1380 855 l0 -165 45 0 45 0 0 70 c0 40 4 70 10 70 6 0 10 -30 10
-70 l0 -70 46 0 47 0 -5 70 c-3 38 -10 76 -16 83 -8 9 -8 17 -1 24 12 12 15
80 4 112 -9 30 -43 41 -121 41 l-64 0 0 -165z m110 64 c0 -16 -4 -29 -10 -29
-5 0 -10 16 -10 36 0 21 4 33 10 29 6 -3 10 -19 10 -36z"/>
</g>
</svg>
